<?xml version="1.0" encoding="utf-8"?>
<!-- Generator: Adobe Illustrator 16.0.0, SVG Export Plug-In . SVG Version: 6.00 Build 0)  -->
<!DOCTYPE svg PUBLIC "-//W3C//DTD SVG 1.1//EN" "http://www.w3.org/Graphics/SVG/1.1/DTD/svg11.dtd">
<svg version="1.1" id="Layer_1" xmlns="http://www.w3.org/2000/svg" xmlns:xlink="http://www.w3.org/1999/xlink" x="0px" y="0px"
	 width="1024px" height="768px" viewBox="0 0 1024 768" enable-background="new 0 0 1024 768" xml:space="preserve">
<g>
	<path fill="#7FDBDC" d="M328.824,316.8c27.83,0,52.17-10.473,67.2-26.667l49.842,17.358l0.389,1.163l-34.813,39.563
		c-21.333-5.915-47.515-2.133-71.272,12.51c-23.661,14.545-49.261,68.558-20.073,105.018c29.188,36.461,91.151,41.988,126.933-1.745
		s-2.327-94.448-2.327-94.448l24.437-33.648c14.157-16.873,26.764-15.516,26.764-15.516c11.733,7.079,26.473,12.121,41.503,15.612
		c3.394-21.915,12.412-41.988,25.503-58.764l-11.83,0.097l-0.291-1.067l31.612-19.006c9.503-7.854,20.169-14.255,31.709-19.103
		l119.078-71.661c0,0-66.618-28.315-156.314,16.485c0,0-71.079,41.697-94.255,86.497c0,0-10.085,7.758-30.934,0.776l-45.188-10.473
		c0,0,11.636-61.479-41.697-80c-53.333-18.521-96.194,14.158-102.012,60.509C256.97,286.643,301.091,316.8,328.824,316.8z
		 M383.321,472.049c-27.54,0-49.843-20.752-49.843-46.352c0-25.601,22.303-46.352,49.843-46.352
		c27.539,0,49.843,20.751,49.843,46.352C433.164,451.297,410.86,472.049,383.321,472.049z M336.97,203.151
		c27.54,0,49.842,20.751,49.842,46.352s-22.303,46.352-49.842,46.352s-49.842-20.751-49.842-46.352S309.43,203.151,336.97,203.151z"
		/>
	<path fill="#7FDBDC" d="M742.788,564.849l-7.854,2.327c-9.794,2.909-19.104,0.582-20.654-5.236
		c-1.552-5.818,5.042-12.897,14.836-15.903l3.976-1.261c9.794-3.006,16.194-11.442,14.255-18.812
		c-1.939-7.37-11.346-10.57-21.043-7.273l-8.437,2.909c-9.696,3.297-19.103,1.358-21.042-4.363s4.363-13.091,14.157-16.291
		l11.733-3.879c9.697-3.2,15.807-11.927,13.576-19.49c-1.745-5.916-8.146-9.31-15.418-8.922
		c-17.357,8.922-37.043,14.061-57.892,14.061c-47.418,0-88.727-26.085-110.642-64.679c-9.115,3.395-15.225,13.382-13.673,23.079
		l8.048,50.618c0,0,7.37,44.315-115.976,50.424c-10.182,0.485-26.86,0.679-37.042,1.164c-124.315,6.206-128,52.945-125.77,71.272
		c2.23,18.327,36.751,71.563,144.776-0.873c8.533-5.721,22.303-14.933,31.321-19.878c116.072-63.903,129.066-19.491,135.757-0.679
		c3.2,9.018,6.497,19.394,9.115,28.023c3.007,9.794,13.285,15.419,23.079,12.412l140.121-42.085
		c9.794-2.908,15.709-11.345,13.091-18.618C762.667,565.527,752.679,561.939,742.788,564.849z"/>
	<path fill="#7FDBDC" d="M662.691,373.818l1.357,0.388l1.454-0.291c0,0,18.23-5.818,12.994-9.503s-13.188-3.103-13.188-3.103h-2.229
		c0,0-8.049-0.582-13.382,3.103C644.461,368,662.691,373.818,662.691,373.818z"/>
	<circle fill="#7FDBDC" cx="687.225" cy="349.77" r="4.558"/>
	<circle fill="#7FDBDC" cx="640.194" cy="349.77" r="4.558"/>
	<path fill="#7FDBDC" d="M589.964,276.945c-17.357,16.097-29.382,38.497-33.067,62.934l0,0c0,0.097,0,0.193,0,0.388
		c0,0.097,0,0.097,0,0.194l0,0c-0.679,4.945-1.163,9.794-1.163,14.933c0,20.752,6.012,37.818,16.291,56.34
		c18.909,27.83,52.654,51.006,91.151,51.006c7.854,0,15.612-0.872,22.981-2.424c10.473-2.327,20.461-6.109,29.576-11.249
		c1.843-1.066,3.685-2.133,5.431-3.297c29.672-19.103,49.454-52.363,49.454-90.278c0-24.049-7.951-46.158-21.333-64
		c-4.267-5.721-9.115-11.054-14.449-15.903c-19.006-17.066-44.023-27.54-71.563-27.54
		C634.764,248.146,609.066,259.2,589.964,276.945z M665.212,319.127c14.255,0,25.697,2.037,35.006,5.043
		c24.824,7.758,33.843,22.012,33.843,22.012l-26.569,12.412c0,0,2.327-16.97-1.552-16.97c-4.945,0.194-3.006,38.594-2.813,45.382
		c0,0.485,0,0.776,0,0.97c0,0-9.018,14.546-37.915,14.546h-1.552c-27.927,0-37.915-14.837-37.915-14.837
		c0-5.139,0.388-10.278,0.485-15.321c0.097-4.169,0.097-8.339,0-12.509c-0.098-4.654-0.194-9.309-0.97-13.964
		c-0.194-1.163-0.485-5.139-2.23-5.139c-1.843-0.098-2.036,3.588-2.134,4.751c0,1.357-0.193,2.715-0.097,4.073
		c0,1.357,0.194,2.715,0.291,4.072c0.097,1.843,0.194,3.685,0.388,5.527l-26.569-12.509c0,0,0.484-0.97,1.454-2.134
		c5.236-6.399,24.34-25.503,67.395-25.503h1.454V319.127z"/>
</g>
</svg>
