<?xml version="1.0" encoding="utf-8"?>
<!-- Generator: Adobe Illustrator 16.0.0, SVG Export Plug-In . SVG Version: 6.00 Build 0)  -->
<!DOCTYPE svg PUBLIC "-//W3C//DTD SVG 1.1//EN" "http://www.w3.org/Graphics/SVG/1.1/DTD/svg11.dtd">
<svg version="1.1" id="Layer_1" xmlns="http://www.w3.org/2000/svg" xmlns:xlink="http://www.w3.org/1999/xlink" x="0px" y="0px"
	 width="144px" height="144px" viewBox="0 0 144 144" enable-background="new 0 0 144 144" xml:space="preserve">
<path fill="#7FDBDC" d="M97.809,41.828c-3.373,5.195-15.039,8.658-17.045,15.493c-2.005,6.835,0.274,16.955-8.476,29.896
	c-8.75,12.944-13.212,22.604-21.098,17.684c-2.122-2.86,8.156-15.129,9.067-16.041c0.911-0.91-11.484-2.553-18.594,3.281
	c-7.11,5.832-14.582,23.696-21.875,17.317c-3.098-3.099,12.213-21.327,12.942-21.692c0.729-0.363-10.391-18.594-29.075-6.289
	c0,0,4.921-13.397,15.039-13.397c10.118,0,12.031,5.741,13.945,9.569c1.913,3.828,28.982-15.04,30.897-24.608
	c0,0,1.73-4.034,2.644-9.844c0,0,0.272-10.573-0.457-13.945c0,0,4.921,1.276,8.296,6.925c0,0,12.76,0.547,16.586-0.911
	C94.434,33.807,101.18,36.632,97.809,41.828z M126.365,40.274c-9.539-3.523-18.389-3.356-19.766,0.374
	c-1.379,3.73,5.236,9.61,14.774,13.133c9.538,3.523,18.388,3.356,19.767-0.374C142.518,49.678,135.902,43.798,126.365,40.274z"/>
</svg>
