<?xml version="1.0" encoding="utf-8"?>
<!-- Generator: Adobe Illustrator 16.0.0, SVG Export Plug-In . SVG Version: 6.00 Build 0)  -->
<!DOCTYPE svg PUBLIC "-//W3C//DTD SVG 1.1//EN" "http://www.w3.org/Graphics/SVG/1.1/DTD/svg11.dtd">
<svg version="1.1" id="Layer_1" xmlns="http://www.w3.org/2000/svg" xmlns:xlink="http://www.w3.org/1999/xlink" x="0px" y="0px"
	 width="1024px" height="768px" viewBox="0 0 1024 768" enable-background="new 0 0 1024 768" xml:space="preserve">
<path fill="#7FDBDC" d="M260,574.08c3.96,117.348,143.052,108.78,147.672,100.2c4.62-8.568,18.456-14.508,17.796-8.568
	c-0.66,5.928,6.588,11.4,6.588,11.4s205.681,14.315,205.681-21.288c0-35.604-29.004-30.984-17.797-35.604
	c11.209-4.62,28.345-30.323,28.345-30.323s-1.98,61.308-3.3,65.268c-9.396,28.176,89.004,27.684,89.004,7.248
	c0-20.437-24.396-26.376-24.396-26.376s6.588-241.284-2.64-251.832c-9.229-10.548-3.96-22.416-3.96-22.416
	c93.611-64.608,51.42-141.084,51.42-160.86C754.436,181.164,763.664,48,741.248,48s-64.608,59.328-76.477,81.744
	c-1.464-1.248-3.155-2.304-5.027-3.18c-21.84-10.236-68.809,3.18-68.809,3.18c-15.815-13.188-116.027-72.516-133.164-55.38
	c-25.056,23.736,54.061,154.26,54.061,154.26C499.964,339.384,569.84,361.8,569.84,361.8s-3.96,39.552-71.196,79.104
	c-85.703,40.872-102.839,94.932-104.16,116.027c-1.32,21.097,14.508,79.104-55.38,56.7c-69.876-22.416-48.78-79.104-48.78-79.104
	C262.64,544.404,260,574.08,260,574.08z"/>
</svg>
