<?xml version="1.0" encoding="utf-8"?>
<!-- Generator: Adobe Illustrator 16.0.0, SVG Export Plug-In . SVG Version: 6.00 Build 0)  -->
<!DOCTYPE svg PUBLIC "-//W3C//DTD SVG 1.1//EN" "http://www.w3.org/Graphics/SVG/1.1/DTD/svg11.dtd">
<svg version="1.1" id="Layer_1" xmlns="http://www.w3.org/2000/svg" xmlns:xlink="http://www.w3.org/1999/xlink" x="0px" y="0px"
	 width="1024px" height="768px" viewBox="0 0 1024 768" enable-background="new 0 0 1024 768" xml:space="preserve">
<g>
	<path fill="#7FDBDC" d="M536,708V555.168l35.244-38.04l43.872-50.628l4.884-6.48V314.412c-8.484-4.296-16.5-9.348-24-15.072V420
		H476v-61.32c12,2.412,41.748,2.088,58.716,2.017c14.893-0.061,16.788-21.396,1.896-21.336c-16.92,0.071-48.612,0.768-60.612-2.292
		v-42.48c12,2.184,35.988,2.136,50.052,2.1c14.893-0.036,12.996-21.372-1.896-21.336c-13.956,0.036-37.128,0.6-50.82-2.28
		c-0.072-0.012,2.664,0.012,2.664,0v-39.816c12,3.588,48.564,3.816,68.82,1.44c0.516-0.06,0.899-0.312,1.392-0.42
		c-2.64-6.54-4.776-13.32-6.504-20.256c-21.132,1.68-52.956,1.368-63.696-2.46V156h60.433c6-44.952,31.26-83.868,67.332-108H452v48
		h48v24h-48v340.02l6.768,9.685l38.112,50.736L524,552.72V708H536z"/>
	<circle fill="#7FDBDC" cx="717.884" cy="189.648" r="8.928"/>
	<circle fill="#7FDBDC" cx="661.964" cy="189.648" r="8.928"/>
	<path fill="#7FDBDC" d="M689.468,307.092c72.108,0,130.561-58.452,130.561-130.56c0-72.108-58.452-130.56-130.561-130.56
		c-25.56,0-49.332,7.452-69.468,20.16C607.292,74.136,596.084,84.228,586.832,96c-5.772,7.344-10.729,15.336-14.832,23.832
		c-5.448,11.256-9.3,23.388-11.316,36.168c-1.056,6.708-1.764,13.524-1.764,20.532c0,35.436,14.172,67.536,37.092,91.056
		c7.188,7.368,15.252,13.836,24,19.356C640.136,299.628,663.908,307.092,689.468,307.092z M610.184,215.796l9.816-3.588l12.972-4.74
		c-0.516-0.78-1.031-3.468-1.031-3.468H620h-12v-24h12h8.832c0,0-0.756-9.78,7.26-14.688c1.584-2.316-9.3-41.88,2.34-46.02
		c9.324-3.624,35.496,23.052,35.496,23.052S684.355,144,687.98,144h2.976c3.624,0,14.04-3.264,14.04-3.264
		s26.184-23.88,35.496-20.256c11.652,4.14,0.756,44.712,2.352,47.028c8.028,4.908,7.272,12.492,7.272,12.492H776v24h-28.992
		c0,0-0.516,2.712-1.032,3.492l22.788,7.32l-3.888,10.872l-26.508-11.196c0,0-16.08,13.524-47.412,13.524h-2.976
		c-31.32,0-47.412-13.596-47.412-13.596L620,224.568l-5.928,2.928L610.184,215.796z"/>
</g>
</svg>
