<?xml version="1.0" encoding="utf-8"?>
<!-- Generator: Adobe Illustrator 16.0.0, SVG Export Plug-In . SVG Version: 6.00 Build 0)  -->
<!DOCTYPE svg PUBLIC "-//W3C//DTD SVG 1.1//EN" "http://www.w3.org/Graphics/SVG/1.1/DTD/svg11.dtd">
<svg version="1.1" id="Layer_1" xmlns="http://www.w3.org/2000/svg" xmlns:xlink="http://www.w3.org/1999/xlink" x="0px" y="0px"
	 width="1024px" height="768px" viewBox="0 0 1024 768" enable-background="new 0 0 1024 768" xml:space="preserve">
<path fill="#7FDBDC" d="M213.5,588H512h12h294.912c41.628,0,31.775-32.856,16.02-32.856c-24.744,0-52.224-73.355-64.224-123.611
	c-8.28-34.704-26.676-56.46-37.272-66.624c-191.279,55.235-368.195,19.344-435.096,1.488c-10.884,10.752-28.248,32.184-36.18,65.424
	c-12,50.256-39.708,123.468-64.452,123.468C181.952,555.276,171.872,588,213.5,588z M422,471.084
	c0-14.784,11.988-26.268,26.771-26.268c13.213,0,24.156,11.184,26.353,23.184h64.428c2.185-12,13.141-23.184,26.353-23.184
	c14.783,0,26.771,10.968,26.771,25.752c0,8.004-3.527,15.168-9.107,20.075c5.567,4.908,9.107,12.024,9.107,20.04
	c0,14.784-11.988,26.725-26.771,26.725c-12.924,0-23.7-9.42-26.221-21.42h-64.691c-2.508,12-13.296,21.479-26.221,21.479
	c-14.783,0-26.771-11.832-26.771-26.616c0-8.004,3.528-15.048,9.108-19.955C425.528,486,422,479.088,422,471.084z"/>
<path fill="#7FDBDC" d="M521.828,276h-9.456c0,0-130.26-3.012-195.612,71.04c74.676,17.82,229.824,42.768,398.676-1.248
	C649.82,273.024,521.828,276,521.828,276z"/>
</svg>
