<?xml version="1.0" encoding="utf-8"?>
<!-- Generator: Adobe Illustrator 16.0.0, SVG Export Plug-In . SVG Version: 6.00 Build 0)  -->
<!DOCTYPE svg PUBLIC "-//W3C//DTD SVG 1.1//EN" "http://www.w3.org/Graphics/SVG/1.1/DTD/svg11.dtd">
<svg version="1.1" id="Layer_1" xmlns="http://www.w3.org/2000/svg" xmlns:xlink="http://www.w3.org/1999/xlink" x="0px" y="0px"
	 width="1024px" height="768px" viewBox="0 0 1024 768" enable-background="new 0 0 1024 768" xml:space="preserve">
<path fill="#7FDBDC" d="M514.364,240h-0.973c0,0-133.572-145.704-250.14-38.844c-116.568,106.859-14.568,353.352,250.14,460.212
	l0.973,1.224c264.708-106.859,366.708-354.576,250.14-461.436C647.924,94.296,514.364,240,514.364,240z M518.78,330.216
	c8.508-26.652,31.284-43.188,50.855-36.936c19.572,6.252,28.536,32.928,20.028,59.581c-8.521,26.651-31.284,43.188-50.856,36.936
	C519.236,383.544,510.272,356.868,518.78,330.216z M449.18,292.356c18.564-5.628,41.088,12.012,50.28,39.42
	c9.192,27.407,1.608,54.18-16.956,59.819c-18.563,5.641-41.076-12.012-50.28-39.42S430.616,297.984,449.18,292.356z
	 M418.772,454.824c-17.688,5.34-39.156-11.448-47.953-37.5c-8.796-26.04-1.584-51.48,16.104-56.82
	c17.688-5.34,39.156,11.448,47.952,37.5S436.46,449.496,418.772,454.824z M544.855,525.576c0,0-18-18.132-33-18.132l-3.827,0.323
	c-15,0-33,18.061-33,18.061s-42.601,21.72-42.36-29.496C432.308,409.116,508.028,396,508.028,396h3.827
	c0,0,75.721,13.056,75.36,100.272C587.456,547.488,544.855,525.576,544.855,525.576z M650.84,418.788
	c-8.147,25.5-29.111,41.592-46.812,35.939c-17.712-5.651-25.452-30.924-17.305-56.424c8.148-25.5,29.112-41.592,46.813-35.939
	C651.236,368.016,658.988,393.276,650.84,418.788z"/>
</svg>
