<?xml version="1.0" encoding="utf-8"?>
<!-- Generator: Adobe Illustrator 16.0.0, SVG Export Plug-In . SVG Version: 6.00 Build 0)  -->
<!DOCTYPE svg PUBLIC "-//W3C//DTD SVG 1.1//EN" "http://www.w3.org/Graphics/SVG/1.1/DTD/svg11.dtd">
<svg version="1.1" id="Capa_1" xmlns="http://www.w3.org/2000/svg" xmlns:xlink="http://www.w3.org/1999/xlink" x="0px" y="0px"
	 width="1024px" height="768px" viewBox="0 0 1024 768" enable-background="new 0 0 1024 768" xml:space="preserve">
<g>
	<path fill="#7FDBDC" d="M415.651,332.792c-7.5-2.959-15.282-4.464-23.115-4.464c-21.414,0-39.817,11.554-46.872,29.427
		c-5.012,12.699-3.754,27.288,3.446,40.022c6.55,11.57,17.42,20.814,30.615,26.022c7.5,2.968,15.282,4.464,23.115,4.464
		c21.414,0,39.817-11.553,46.872-29.427c5.012-12.699,3.763-27.288-3.446-40.021C439.716,347.236,428.838,338,415.651,332.792z
		 M413.676,384.607c-1.146,2.891-5.602,4.917-10.844,4.917c-2.898,0-5.978-0.607-8.894-1.762
		c-9.005-3.558-13.982-11.408-12.255-15.786c1.138-2.891,5.602-4.918,10.844-4.918c2.908,0,5.978,0.607,8.894,1.754
		c4.9,1.933,8.963,5.242,11.126,9.073C413.377,379.365,414.634,382.188,413.676,384.607z"/>
	<path fill="#7FDBDC" d="M577.237,358.815c-7.209,12.733-8.458,27.313-3.446,40.021c7.055,17.874,25.458,29.427,46.872,29.427l0,0
		c7.833,0,15.606-1.505,23.115-4.464c13.195-5.208,24.064-14.452,30.615-26.022c7.201-12.734,8.458-27.323,3.446-40.022
		c-7.055-17.873-25.458-29.427-46.872-29.427c-7.833,0-15.615,1.505-23.115,4.464C594.666,338,583.788,347.236,577.237,358.815z
		 M610.957,377.895c2.163-3.823,6.217-7.133,11.126-9.074c2.916-1.146,5.985-1.753,8.894-1.753c5.242,0,9.697,2.019,10.844,4.917
		c1.728,4.379-3.25,12.229-12.255,15.787c-2.916,1.154-5.986,1.762-8.886,1.762l0,0c-5.242,0-9.697-2.019-10.843-4.918
		C608.87,382.188,610.127,379.365,610.957,377.895z"/>
	<path fill="#7FDBDC" d="M912.954,147.971l-0.034-2.848l-0.872-2.711c-1.215-3.771-13.119-37.825-57.554-72.203
		c-25.604-19.814-57.015-35.721-93.359-47.3C716.605,8.723,664.371,1.018,605.895,0.009c-2.66-0.043-8.176-0.146-22.62,8.543
		c-6.234,3.754-15.624,10.117-24.92,19.13c-11.126,10.792-19.104,22.525-23.714,34.703c-7.414-0.299-15.222-0.47-23.338-0.47
		c-7.619,0-14.957,0.154-21.961,0.419c-4.609-12.152-12.588-23.868-23.696-34.644c-9.296-9.03-18.678-15.393-24.92-19.139
		c-14.436-8.68-19.96-8.586-22.62-8.543c-58.477,1.018-110.711,8.723-155.24,22.901c-36.336,11.579-67.747,27.494-93.351,47.3
		c-44.435,34.378-56.348,68.431-57.554,72.203l-0.881,2.711l-0.034,2.848c-0.761,61.795,40.801,121.897,60.555,146.928
		c-28.024,35.523-31.496,94.395-10.279,175.105c15.376,58.503,38.175,107.094,39.142,109.129l5.063,10.732l11.87,0.12
		c42.545,0.437,70.578,5.524,87.45,10.168c15.402,46.342,58.434,80.694,110.113,84.543v0.967c0,45.4,36.935,82.327,82.328,82.327
		h29.435c45.401,0,82.328-36.935,82.328-82.327v-1.095c51.046-4.361,93.445-38.5,108.71-84.424
		c16.873-4.644,44.905-9.731,87.45-10.168l11.87-0.119l5.063-10.732c1.009-2.146,24.954-53.175,40.305-113.619
		c19.771-77.89,16.146-134.887-10.732-169.744C871.17,271.279,913.724,210.493,912.954,147.971z M577.87,523.437v0.025
		c-0.282-0.025-0.556-0.051-0.83-0.085C577.365,523.402,577.639,523.42,577.87,523.437z M457.975,522.444
		c2.642-0.196,5.559-0.419,8.611-0.649c19.139-1.445,43.811-3.318,43.811-3.318c0.599-0.043,1.206-0.043,1.796,0
		c19.977,1.514,33.942,2.574,43.726,3.318c3.326,0.248,6.174,0.47,8.603,0.649c1.069,8.056-0.428,14.538-4.55,19.721
		c-8.27,10.398-27.306,16.864-49.677,16.864h-0.009c-10.125,0-20.19-1.42-28.357-3.985c-18.558-5.841-23.44-16.359-24.228-24.278
		C457.675,528.97,457.769,525.72,457.975,522.444z M571.174,685.664c0,24.509-19.942,44.451-44.452,44.451h-29.435
		c-24.51,0-44.452-19.942-44.452-44.451v-3.678c7.277-1.625,14.4-3.883,21.328-6.773c5.764,0.693,11.844,1.215,18.198,1.548v29.247
		h37.875v-29.247c6.354-0.342,12.435-0.854,18.198-1.548c7.372,3.079,14.966,5.431,22.73,7.073v3.378H571.174z M833.808,256.313
		c-29.452,32.505-40.211,60.7-47.334,79.369c-1.095,2.864-2.335,6.123-3.447,8.731c-1.3-0.65-2.933-1.522-4.942-2.702
		c-7.047-4.148-28.785-22.304-78.309-101.159c-28.084-44.717-51.191-86.929-51.422-87.356l-33.24,18.164
		c0.23,0.428,23.816,43.511,52.49,89.178c59.854,95.335,83.508,109.24,91.281,113.815c8.501,4.994,18.164,9.724,28.127,9.724
		c3.232,0,6.491-0.496,9.758-1.643c14.333-5.028,19.566-18.736,25.1-33.258c2.018-5.284,4.268-11.186,7.149-17.616
		c4.669,10.689,7.337,23.902,7.927,39.577c0.89,23.483-2.848,51.927-11.091,84.543c-10.468,41.399-25.647,79.01-33.25,96.678
		c-28.956,0.898-51.55,3.857-68.815,7.397c-0.548-24.176-8.262-47.352-22.448-67.183c-14.29-19.985-34.113-35.251-57.314-44.136
		l-6.772,17.685l-6.773,17.686c16.248,6.217,30.094,16.873,40.048,30.795c10.1,14.119,15.437,30.684,15.437,47.907
		c0,2.967-0.163,5.892-0.471,8.782c-1.582,14.666-7.072,28.238-15.444,39.724c-13.923,19.096-35.815,32.428-61,35.498
		c-3.644,0.444-7.346,0.667-11.108,0.667c-2.635,0-5.242-0.111-7.834-0.325c-6.474-0.539-12.802-1.762-18.942-3.651
		c-4.045-1.24-8.004-2.771-11.869-4.593l-5.157-2.429l-5.636,0.821c-5.661,0.821-11.767,1.428-18.267,1.83v-10.972V595.57
		c8.364-1.146,16.231-3.027,23.483-5.584c6.319-2.232,12.169-4.978,17.454-8.21c7.295-4.455,13.521-9.834,18.455-16.043
		c0.162-0.205,0.324-0.41,0.479-0.624c8.321-10.75,16.659-28.974,10.502-55.655l-0.043-0.214c-0.23-1.068-0.778-3.565-1.437-5.978
		c-0.496-1.813-0.967-3.267-1.479-4.558c-4.464-11.212-14.068-12.794-16.898-13.008h-0.018l-0.701-0.051l0,0
		c-2.582-0.197-11.896-0.898-22.688-1.719c-18.865-1.429-42.271-3.207-42.271-3.207c-2.497-0.188-5.037-0.188-7.525,0
		c0,0-23.466,1.778-42.383,3.207c-12.751,0.966-23.432,1.77-23.457,1.778c-5.405,0.41-10.365,2.968-13.957,7.192
		c-4.336,5.097-6.405,12.058-7.397,24.825c-0.461,5.978-0.641,13.161-0.393,16.018c1.103,12.717,5.978,24.244,13.939,33.831
		c5.104,6.14,11.468,11.493,18.941,15.838c4.379,2.548,9.134,4.755,14.23,6.576c1.154,0.41,2.317,0.813,3.506,1.188
		c6.765,2.13,14.119,3.669,21.79,4.618v32.078v10.972c-6.499-0.402-12.613-1.001-18.275-1.83l-5.635-0.821l-5.157,2.429
		c-3.412,1.607-6.909,2.984-10.467,4.147c-6.132,2.001-12.46,3.327-18.942,3.968c-3.045,0.3-6.123,0.462-9.236,0.462
		c-3.283,0-6.517-0.18-9.706-0.521c-25.767-2.728-48.215-16.205-62.394-35.644c-8.372-11.485-13.871-25.057-15.445-39.723
		c-0.308-2.891-0.47-5.815-0.47-8.783c0-17.215,5.336-33.779,15.436-47.907c9.954-13.922,23.808-24.577,40.048-30.795l-6.773-17.685
		l-6.773-17.686c-23.209,8.886-43.024,24.15-57.314,44.136c-12.238,17.112-19.661,36.713-21.824,57.297
		c-3.369-25.244-19.754-49.378-35.644-67.858c-16.855-19.608-42.494-34.472-68.594-32.65c-6.534-27.374-9.783-51.712-9.664-72.484
		c0.111-19.011,3.053-34.687,8.74-46.89c3.233,7.047,5.687,13.469,7.859,19.182c5.542,14.521,10.767,28.229,25.099,33.258
		c3.267,1.146,6.525,1.642,9.758,1.642c9.963,0,19.626-4.72,28.126-9.723c7.774-4.575,31.419-18.48,91.282-113.816
		c28.674-45.667,52.26-88.75,52.491-89.178l-33.241-18.164c-0.231,0.419-23.346,42.639-51.422,87.356
		c-49.523,78.856-71.262,97.011-78.309,101.159c-2.009,1.181-3.643,2.062-4.943,2.702c-1.112-2.607-2.352-5.866-3.446-8.731
		c-2.403-6.311-5.233-13.708-9.048-21.995c0.71-0.777,1.386-1.582,2.044-2.411c5.242-6.593,10.348-13.324,14.213-20.841
		c4.02-7.816,6.56-16.385,6.38-25.228c-0.188-9.091-3.951-17.471-8.8-24.98c-8.629-13.34-18.438-27.041-33.395-33.66
		c-15.872-7.021-34.053-9.33-51.242-11.134c-5.054-14.136-8.449-28.999-8.731-43.751c4.635-10.835,18.797-32.864,46.342-53.465
		c22.226-16.625,49.677-30.085,81.593-39.988c39.697-12.323,86.381-19.139,138.795-20.276c6.671,3.079,22.885,13.426,32.643,27.34
		c-20.918,2.24-33.959,4.806-34.908,5.002l7.431,37.141c0.385-0.077,38.774-7.637,90.478-7.637c51.439,0,90.11,7.56,90.495,7.637
		l7.415-37.149c-0.933-0.188-13.452-2.651-33.609-4.857c9.749-13.991,26.049-24.39,32.745-27.485
		c52.414,1.137,99.098,7.953,138.795,20.276c13.812,4.285,26.784,9.245,38.859,14.829c-5.815,7.739-9.731,16.984-11.237,26.382
		c-3.317,20.704,3.84,40.065,17.531,55.586c13.632,15.461,33.814,24.466,53.962,27.211c7.996,1.095,15.932,1.437,23.894,1.078
		C862.318,211.554,846.592,237.996,833.808,256.313z"/>
	<path fill="#7FDBDC" d="M367.804,553.257c-11.622,0-15.12,12.563-10.527,20.165c1.992,3.292,5.49,5.661,10.527,5.661
		c3.113,0,5.636-0.898,7.585-2.369C383.873,570.335,381.351,553.257,367.804,553.257z"/>
	<path fill="#7FDBDC" d="M396.213,607.492c-8.671,0-12.819,7.004-12.459,13.717c0.333,6.183,4.473,12.109,12.459,12.109
		c4.926,0,8.39-2.274,10.399-5.456C411.393,620.276,407.938,607.492,396.213,607.492z"/>
	<path fill="#7FDBDC" d="M411.709,567.461c-11.442,0-15.025,12.187-10.741,19.814c1.95,3.48,5.533,6.004,10.741,6.004
		c1.163,0,2.24-0.137,3.25-0.377c2.197-0.521,4.011-1.556,5.422-2.933c6.499-6.337,4.687-19.772-5.422-22.149
		C413.949,567.598,412.872,567.461,411.709,567.461z"/>
	<path fill="#7FDBDC" d="M647.644,576.603c1.967,1.531,4.532,2.48,7.723,2.48c5.063,0,8.577-2.395,10.562-5.721
		c4.541-7.603,1.026-20.105-10.562-20.105C641.897,553.257,639.323,570.146,647.644,576.603z"/>
	<path fill="#7FDBDC" d="M616.559,627.854c2.009,3.19,5.473,5.456,10.398,5.456c8.15,0,12.306-6.191,12.478-12.503
		c0.179-6.593-3.969-13.323-12.478-13.323C615.232,607.492,611.777,620.276,616.559,627.854z"/>
	<path fill="#7FDBDC" d="M622.441,586.805c3.883-7.653,0.231-19.344-10.98-19.344c-0.854,0-1.65,0.086-2.411,0.214
		c-10.844,1.821-12.931,15.804-6.26,22.312c1.591,1.548,3.677,2.659,6.26,3.096c0.761,0.128,1.564,0.214,2.411,0.214
		C616.909,593.287,620.561,590.525,622.441,586.805z"/>
	<path fill="#7FDBDC" d="M538.387,247.086c-1.993-13.777-14.718-22.936-26.973-26.998c-9.159-3.036-19.353-2.668-28.888-3.019
		c-8.894-0.325-17.215-2.026-26.151-5.028c-17.471-5.884-31.205,32.634-29.812,44.418c2.343,19.72,17.497,34.959,28.067,50.729
		c10.433,15.563,19.489,30.795,40.09,33.215c13.119,1.539,26.246-6.816,30.958-18.849c2.352-6.012,2.061-12.528,1.633-18.848
		c0-0.009,0-0.017,0-0.026C525.97,282.952,541.371,267.739,538.387,247.086z"/>
</g>
</svg>
