<?xml version="1.0" encoding="utf-8"?>
<!-- Generator: Adobe Illustrator 16.0.0, SVG Export Plug-In . SVG Version: 6.00 Build 0)  -->
<!DOCTYPE svg PUBLIC "-//W3C//DTD SVG 1.1//EN" "http://www.w3.org/Graphics/SVG/1.1/DTD/svg11.dtd">
<svg version="1.1" id="Capa_1" xmlns="http://www.w3.org/2000/svg" xmlns:xlink="http://www.w3.org/1999/xlink" x="0px" y="0px"
	 width="1024px" height="768px" viewBox="0 0 1024 768" enable-background="new 0 0 1024 768" xml:space="preserve">
<g>
	<path fill="#7FDBDC" d="M598.855,358.898c16.511-1.982,28.623-14.166,27.055-27.22c-0.784-6.509-4.826-12.006-10.729-15.627
		c15.97-15.62,23.79-23.084,23.79-23.084H587.37c-18.949,0-34.313,15.364-34.313,34.313v50.296
		c8.441-8.434,16.233-16.204,23.405-23.326C582.443,358.05,590.407,359.91,598.855,358.898z"/>
	<path fill="#7FDBDC" d="M398.083,331.679c-1.569,13.047,10.544,25.23,27.055,27.22c8.455,1.012,16.419-0.842,22.393-4.648
		c7.173,7.122,14.965,14.893,23.405,23.326V327.28c0-18.949-15.363-34.313-34.313-34.313h-51.601c0,0,7.828,7.457,23.791,23.084
		C402.909,319.673,398.867,325.17,398.083,331.679z"/>
	<path fill="#7FDBDC" d="M201.873,202.134c-20.218,45.249-28.816,98.404-25.558,157.99l1.169,21.438l28.852-6.922
		c-0.021,17.709,1.176,43.552,6.409,72.981c5.668,31.867,14.929,61.439,27.519,87.874c15.941,33.465,37.271,61.975,63.4,84.724
		l17.139,14.922l9.838-18.899c8.441,12.176,19.883,27.511,34.063,43.93c30.221,34.99,79.191,81.665,140.873,105.369l6.417,2.467
		l6.423-2.467c61.675-23.697,110.646-70.379,140.866-105.369c14.18-16.419,25.622-31.754,34.063-43.93l9.838,18.899l17.139-14.922
		c26.129-22.749,47.459-51.252,63.4-84.724c12.59-26.441,21.851-56.007,27.519-87.874c5.232-29.43,6.431-55.28,6.409-72.981
		l28.852,6.922l1.177-21.438c3.258-59.585-5.34-112.741-25.559-157.997c-16.376-36.651-40.294-68.091-71.085-93.449
		c-21.852-17.994-43.973-30.292-62.502-38.548l50.831-22.471L710.77,29.757C679.223,10.017,640.154,0,594.642,0
		C556.173,0,524.17,7.272,512,10.466C499.823,7.272,467.82,0,429.358,0c-45.506,0-84.581,10.017-116.127,29.757l-28.595,17.901
		l50.831,22.471c-18.521,8.256-40.651,20.554-62.495,38.548C242.167,134.043,218.249,165.483,201.873,202.134z M211.447,336.598
		c-0.05-25.914,2.517-50.232,7.628-72.796c21.758-0.749,40.137,4.527,54.766,15.777c11.122,8.548,16.832,18.222,18.593,21.594
		c-5.375,25.644-5.611,44.715-5.618,46.525l-0.036,6.973l20.575,22.606c-3.665,1.104-7.479,2.445-11.399,4.078
		c-15.399,6.401-34.327,18.187-50.967,39.767c-4.712-38.876-2.082-67.314-2.053-67.628l2.481-25.045L211.447,336.598z
		 M379.397,213.398c31.19-25.395,74.635-32.787,129.117-21.972l3.486,0.691l3.486-0.691c54.481-10.815,97.919-3.422,129.117,21.972
		c46.518,37.87,54.944,106.296,56.456,127.813l-61.247,67.299c-12.926-20.603-26.079-33.999-27.184-35.111l-25.38,25.252
		c0.113,0.114,11.514,11.749,22.414,29.158c9.838,15.699,21.309,39.439,20.111,63.357c-0.87,17.389-8.163,32.688-22.229,46.532
		l-8.534-3.144l0,0L517.96,504.69c1.483-11.742,4.819-26.122,12.334-31.426c13.523-9.546,36.594-24.66,0-27.048
		c0,0-8.748,4.776-18.301,4.776c-9.546,0-18.294-4.776-18.294-4.776c-36.594,2.388-13.524,17.502,0,27.048
		c7.515,5.304,10.851,19.684,12.334,31.426l-81.045,29.856l0,0l-8.534,3.145c-14.03-13.81-21.323-29.073-22.221-46.404
		c-2.417-46.589,42.09-92.202,42.54-92.658l-12.711-12.604l12.689,12.626l-25.372-25.252c-1.105,1.112-14.259,14.509-27.184,35.111
		l-61.247-67.299C324.452,319.659,332.893,251.261,379.397,213.398z M568.143,584.124c-0.435,0.264-1.148,0.563-2.859,0.563l0,0
		c-4.099,0-10.28-1.753-16.824-3.607c-9.988-2.83-22.422-6.352-36.459-6.352s-26.471,3.521-36.459,6.352
		c-6.544,1.854-12.726,3.607-16.824,3.607c-1.704,0-2.424-0.299-2.853-0.563c-1.875-2.667-2.252-12.319-0.655-22.564L512,540.636
		l56.784,20.924C570.288,571.298,570.153,581.279,568.143,584.124z M751.163,520.624c-10.209,21.316-22.885,40.237-37.813,56.499
		l-17.751-34.063l-16.227,28.737c-0.171,0.3-17.409,30.628-47.694,65.567c-26.363,30.413-68.134,70.494-119.678,92.167
		c-51.544-21.673-93.321-61.754-119.678-92.167c-30.285-34.939-47.523-65.268-47.688-65.56l-16.211-28.816l-17.766,34.128
		c-14.936-16.255-27.604-35.183-37.813-56.499c-6.822-14.237-12.554-29.572-17.167-45.827
		c22.542-57.026,63.471-65.553,79.833-66.594l31.497,34.612c-5.76,15.421-9.417,32.467-8.534,50.133
		c1.526,30.448,15.898,57.055,42.711,79.084l7.928,6.509l9.275-3.415c0.299,14.224,4.128,29.558,17.038,38.392
		c6.759,4.626,14.594,6.965,23.299,6.965c9.075,0,17.979-2.523,26.585-4.962c8.669-2.46,17.638-4.998,26.698-4.998
		c9.062,0,18.022,2.538,26.699,4.998c8.612,2.438,17.517,4.962,26.585,4.962l0,0c8.697,0,16.539-2.346,23.298-6.965
		c12.911-8.833,16.732-24.168,17.039-38.392l9.274,3.415l7.928-6.509c26.813-22.029,41.186-48.636,42.711-79.084
		c0.885-17.666-2.772-34.712-8.533-50.133l31.454-34.563c5.996,0.414,15.406,1.804,25.851,6.152
		c24.011,9.988,42.169,30.3,54.032,60.385C763.718,491.045,757.986,506.38,751.163,520.624z M778.653,328.485l2.417,24.987
		c0.035,0.335,2.666,28.773-2.046,67.649c-16.64-21.588-35.575-33.365-50.967-39.767c-3.921-1.633-7.735-2.974-11.399-4.078
		l20.574-22.606l-0.035-6.973c-0.007-1.811-0.242-20.896-5.625-46.568c3.279-6.48,22.328-38.904,73.395-37.293
		c5.105,22.557,7.65,46.868,7.607,72.768L778.653,328.485z M789.439,216.735c1.669,3.729,3.237,7.536,4.728,11.392
		c-31.818,1.533-53.84,13.382-67.721,24.553c-2.681,2.153-5.133,4.349-7.386,6.53c-10.28-25.9-26.399-52.771-51.673-73.417
		c-0.756-0.62-1.532-1.219-2.303-1.818c3.843-14.729,16.063-40.615,54.917-54.153c2.752,2.06,5.511,4.228,8.263,6.495
		C754.764,158.125,775.346,185.181,789.439,216.735z M366.286,44.622c18.722-5.86,39.81-8.819,63.072-8.819
		c42.633,0,77.103,10.259,77.423,10.359L512,47.737l5.197-1.568c0.342-0.107,34.812-10.366,77.444-10.366
		c23.263,0,44.351,2.959,63.072,8.819l-78.472,34.698l56.763,10.615c0.307,0.057,20.632,4.007,47.402,17.353
		c-22.742,13.139-35.889,29.872-43.388,43.674c-2.652,4.883-4.741,9.624-6.389,14.087c-33.842-15.035-74.571-18.215-121.638-9.396
		c-47.067-8.819-87.796-5.646-121.639,9.396c-1.647-4.456-3.736-9.204-6.388-14.087c-7.493-13.788-20.625-30.506-43.332-43.638
		c26.678-13.26,47.067-17.331,47.345-17.388l56.763-10.615L366.286,44.622z M294.524,137.309c3.158-2.638,6.324-5.126,9.482-7.493
		c22.043,7.621,38.07,19.969,47.723,36.822c3.665,6.388,5.825,12.491,7.101,17.388c-0.741,0.584-1.49,1.162-2.224,1.761
		c-25.273,20.646-41.385,47.516-51.672,73.417c-2.253-2.182-4.706-4.371-7.386-6.531c-13.873-11.164-35.888-23.013-67.699-24.545
		c1.362-3.536,2.78-7.03,4.292-10.458C248.034,186.2,268.353,159.167,294.524,137.309z"/>
</g>
</svg>
