<?xml version="1.0" encoding="utf-8"?>
<!-- Generator: Adobe Illustrator 16.0.0, SVG Export Plug-In . SVG Version: 6.00 Build 0)  -->
<!DOCTYPE svg PUBLIC "-//W3C//DTD SVG 1.1//EN" "http://www.w3.org/Graphics/SVG/1.1/DTD/svg11.dtd">
<svg version="1.1" id="Capa_1" xmlns="http://www.w3.org/2000/svg" xmlns:xlink="http://www.w3.org/1999/xlink" x="0px" y="0px"
	 width="1024px" height="768px" viewBox="0 0 1024 768" enable-background="new 0 0 1024 768" xml:space="preserve">
<path fill="#7FDBDC" d="M916.585,217.536c-9.146-9.147-18.822-17.584-28.918-25.313c18.034-22.158,30.726-44.206,37.766-65.655
	c6.8-20.71,8.438-40.921,4.862-60.073c-6.181-33.172-25.803-51.336-28.02-53.303L887.896,0.459l-14.898,12.103
	C836.87,41.919,732.551,75.311,687.815,88.792C626.524,72.235,517.013,69.07,512.21,69.07h-0.22h-0.22
	c-4.804,0-114.315,3.175-175.606,19.721c-44.735-13.47-149.044-47.801-185.182-77.158L136.093,0l-14.379,12.961
	c-2.216,1.957-21.838,20.25-28.019,53.413c-3.565,19.152-1.927,39.423,4.863,60.133c7.04,21.449,19.741,43.527,37.766,65.685
	c-10.105,7.729-19.771,16.176-28.918,25.333c-54.092,54.102-83.889,126.038-83.889,202.548c0,76.509,29.797,148.445,83.899,202.547
	c54.102,54.102,126.027,83.898,202.537,83.898c22.937,0,56.558-0.908,87.503-5.192c28.02,34.391,66.245,57.098,111.569,66.085
	L511.99,768l2.966-0.589c45.324-8.987,83.549-31.694,111.568-66.085c30.945,4.284,64.566,5.192,87.504,5.192
	c76.509,0,148.445-29.797,202.547-83.898s83.898-126.028,83.898-202.537C1000.474,343.573,970.688,271.637,916.585,217.536z
	 M930.186,376.396c0,99.966-81.332,181.299-181.298,181.299c-70.349,0-131.47-40.282-161.517-98.987
	c8.617-6.851,17.895-14.26,27.66-22.108c18.743,55.959,71.666,96.391,133.847,96.391c77.808,0,141.115-63.309,141.115-141.115
	c0-54.132-30.636-101.224-75.48-124.89c14.329-13.291,27.69-26.112,39.593-38.145C900.139,261.762,930.186,315.634,930.186,376.396z
	 M735.268,459.196c31.334,0,56.817-25.493,56.817-56.817c0-31.325-25.493-56.818-56.817-56.818c-3.795,0-7.499,0.38-11.094,1.099
	c18.094-15.358,36.107-30.915,53.402-46.233c38.874,12.223,67.153,48.6,67.153,91.458c0,52.854-42.998,95.852-95.842,95.852
	c-48.38,0-88.492-36.028-94.933-82.661c9.276-7.589,18.782-15.397,28.408-23.376c-2.516,6.411-3.914,13.381-3.914,20.681
	C678.449,433.703,703.933,459.196,735.268,459.196z M723.714,402.379c0-6.371,5.183-11.544,11.544-11.544
	c6.37,0,11.543,5.183,11.543,11.544c0,6.37-5.183,11.543-11.543,11.543C728.896,413.922,723.714,408.739,723.714,402.379z
	 M512,118.069c4.703,0.06,79.954,1.148,135.764,10.345l-16.116,21.699L512,311.19L392.353,150.123l-16.117-21.699
	C432.035,119.218,507.297,118.129,512,118.069z M137.821,77.108c0.899-6.131,2.606-11.374,4.523-15.677
	c55.56,33.542,154.667,64.677,181.008,72.645c0.3,0.09,0.599,0.18,0.889,0.27l19.282,25.962l20.49,27.581L501.655,373.19L512,387.12
	l10.345-13.93l137.642-185.302l20.49-27.581l19.282-25.962c0.279-0.09,0.579-0.18,0.889-0.27
	c26.342-7.968,125.448-39.104,181.008-72.645c1.928,4.304,3.625,9.546,4.523,15.677c3.845,26.172-8.867,57.347-36.807,90.37
	c-0.988,1.168-1.986,2.336-3.016,3.505c-0.149,0.169-0.31,0.359-0.469,0.529c-8.139,9.267-17.874,19.482-28.818,30.376
	c-1.558,1.548-3.136,3.105-4.733,4.683c-14.409,14.149-30.705,29.338-48.12,45.035c-49.079,44.236-106.985,92.446-156.234,132.398
	c-12.901,10.465-25.204,20.36-36.598,29.468c-14.668,11.723-27.81,22.138-38.783,30.785c-8.158,6.421-15.129,11.883-20.61,16.167
	c-5.482-4.274-12.452-9.736-20.61-16.167c-10.984-8.647-24.125-19.063-38.784-30.785c-11.394-9.107-23.695-19.013-36.597-29.468
	c-49.249-39.952-107.155-88.163-156.234-132.398c-17.415-15.697-33.711-30.886-48.121-45.035c-1.598-1.578-3.175-3.135-4.733-4.683
	c-10.944-10.894-20.68-21.109-28.818-30.376c-0.15-0.17-0.32-0.36-0.469-0.529c-1.029-1.168-2.027-2.336-3.016-3.505
	C146.688,134.456,133.977,103.281,137.821,77.108z M571.055,517.612c-6.431,15.268-19.122,42.768-39.094,65.744v-82.051
	c9.985-3.386,10.765-8.129,18.294-14.02C556.216,497.86,563.376,507.996,571.055,517.612z M492.029,501.296v82.051
	c-19.972-22.977-32.653-50.477-39.094-65.745c7.688-9.605,14.838-19.741,20.8-30.336
	C481.265,493.167,482.043,497.91,492.029,501.296z M288.733,345.561c-31.325,0-56.818,25.493-56.818,56.817
	c0,31.335,25.493,56.818,56.818,56.818c31.334,0,56.818-25.493,56.818-56.818c0-7.299-1.398-14.269-3.915-20.68
	c9.626,7.979,19.132,15.787,28.409,23.376c-6.45,46.633-46.563,82.661-94.933,82.661c-52.854,0-95.852-42.998-95.852-95.852
	c0-42.858,28.279-79.235,67.153-91.458c17.295,15.317,35.309,30.875,53.403,46.233C296.232,345.94,292.527,345.561,288.733,345.561z
	 M300.276,402.379c0,6.37-5.182,11.543-11.543,11.543c-6.371,0-11.543-5.183-11.543-11.543c0-6.371,5.183-11.544,11.543-11.544
	C295.104,390.825,300.276,396.008,300.276,402.379z M169.875,228.849c11.903,12.023,25.264,24.854,39.593,38.145
	c-44.835,23.666-75.481,70.758-75.481,124.89c0,77.817,63.309,141.116,141.116,141.116c62.19,0,115.104-40.432,133.847-96.391
	c9.775,7.858,19.052,15.268,27.66,22.107c-30.047,58.705-91.159,98.987-161.517,98.987c-99.975,0-181.308-81.333-181.308-181.298
	C93.805,315.634,123.861,261.762,169.875,228.849z M884.571,590.606c-45.554,45.554-106.116,70.638-170.533,70.638
	c-16.456,0-38.694-0.489-60.952-2.477c9.227-19.841,12.332-34.62,12.512-35.488l-44.355-9.037l0.02-0.1
	c-0.05,0.229-5.132,23.406-22.178,48.359C578.104,693.198,548.827,713.1,512,721.736c-36.827-8.637-66.114-28.538-87.084-59.234
	c-17.046-24.953-22.128-48.13-22.178-48.359l0.02,0.1l-44.356,9.037c0.18,0.868,3.286,15.657,12.512,35.488
	c-22.258,1.987-44.496,2.477-60.952,2.477c-64.417,0-124.979-25.084-170.533-70.638c-28.509-28.509-49.009-62.909-60.343-100.445
	c9.766,16.756,21.749,32.374,35.818,46.453c42.798,42.798,99.696,66.364,160.208,66.364c52.774,0,102.792-17.924,143.113-50.896
	c15.078,31.105,42.988,77.179,84.128,100.265l9.646,5.412l9.646-5.412c41.141-23.086,69.05-69.159,84.128-100.265
	c40.312,32.962,90.34,50.896,143.113,50.896c60.522,0,117.42-23.566,160.208-66.364c14.08-14.079,26.063-29.687,35.828-46.453
	C933.581,527.707,913.08,562.098,884.571,590.606z"/>
</svg>
